<svg width="44" height="43" viewBox="0 0 44 43" fill="none" xmlns="http://www.w3.org/2000/svg">
<path d="M1 1H5.45146C7.00372 1 7.77848 1 8.39719 1.30635C8.65227 1.43307 8.88331 1.5957 9.08161 1.78812C9.56071 2.25506 9.74961 2.93447 10.1247 4.29329L10.6229 6.08941C10.8994 7.08753 11.039 7.58659 11.2526 8.00659C11.6176 8.72329 12.1675 9.35072 12.8562 9.83641C13.5449 10.3221 14.3524 10.6519 15.2113 10.7984C15.715 10.8824 16.2844 10.8824 17.426 10.8824" stroke="white" stroke-width="2" stroke-linecap="round"/>
<path d="M39.3274 33.1176H10.7187C10.3218 33.1176 10.1219 33.1176 9.96861 33.1028C9.58849 33.0645 9.22147 32.9548 8.89122 32.7807C8.56097 32.6066 8.2748 32.372 8.05118 32.092C7.82755 31.8119 7.67143 31.4927 7.59286 31.1549C7.5143 30.8171 7.51504 30.4682 7.59504 30.1307C7.65799 29.912 7.73198 29.696 7.81679 29.4834C7.95915 29.1029 8.0276 28.9127 8.10699 28.7422C8.4967 27.8999 9.13735 27.1714 9.9579 26.6376C10.7784 26.1038 11.7468 25.7856 12.7556 25.7182C12.9581 25.7059 13.1826 25.7059 13.6234 25.7059H28.3767" stroke="white" stroke-width="2" stroke-linecap="round" stroke-linejoin="round"/>
<path d="M29.8223 25.7059H20.0926C16.7635 25.7059 15.099 25.7059 13.8151 25.0265C13.2737 24.739 12.7913 24.3696 12.3887 23.9345C11.4306 22.9018 11.1568 21.4194 10.612 18.4572C10.0562 15.4554 9.77974 13.9533 10.4395 12.8415C10.714 12.3776 11.0947 11.9716 11.5565 11.6507C12.6625 10.8824 14.3489 10.8824 17.7217 10.8824H35.9437C39.9133 10.8824 41.8981 10.8824 42.703 12.0534C43.5051 13.2269 42.6154 14.8279 40.8414 18.0322L39.6176 20.2434C38.1448 22.9018 37.4083 24.2309 36.086 24.9672C34.761 25.7059 33.1157 25.7059 29.8223 25.7059Z" stroke="white" stroke-width="2" stroke-linecap="round"/>
<path d="M36.5898 43C38.1018 43 39.3275 41.8939 39.3275 40.5294C39.3275 39.1649 38.1018 38.0588 36.5898 38.0588C35.0778 38.0588 33.8521 39.1649 33.8521 40.5294C33.8521 41.8939 35.0778 43 36.5898 43Z" fill="white"/>
<path d="M14.6884 43C16.2004 43 17.4261 41.8939 17.4261 40.5294C17.4261 39.1649 16.2004 38.0588 14.6884 38.0588C13.1764 38.0588 11.9507 39.1649 11.9507 40.5294C11.9507 41.8939 13.1764 43 14.6884 43Z" fill="white"/>
</svg>
