<svg width="37" height="36" viewBox="0 0 37 36" fill="none" xmlns="http://www.w3.org/2000/svg">
<path d="M1 1H4.70965C6.00324 1 6.64889 1 7.1645 1.2553C7.37707 1.3609 7.56961 1.49642 7.73487 1.65677C8.13412 2.04589 8.29154 2.61207 8.6041 3.74443L9.01933 5.2412C9.24976 6.07297 9.36611 6.48885 9.54406 6.83886C9.84826 7.43611 10.3065 7.95897 10.8804 8.36371C11.4543 8.76846 12.1273 9.04333 12.8431 9.16534C13.2628 9.23534 13.7374 9.23534 14.6888 9.23534" stroke="black" stroke-width="2" stroke-linecap="round"/>
<path d="M32.9402 27.7654H9.09892C8.76811 27.7654 8.60157 27.7654 8.4738 27.753C8.15703 27.7211 7.85117 27.6297 7.57596 27.4846C7.30074 27.3395 7.06226 27.144 6.8759 26.9106C6.68954 26.6773 6.55943 26.4113 6.49396 26.1298C6.42849 25.8483 6.42911 25.5575 6.49578 25.2762C6.54823 25.094 6.6099 24.914 6.68058 24.7368C6.79921 24.4198 6.85625 24.2612 6.92241 24.1192C7.24718 23.4172 7.78107 22.8101 8.46488 22.3653C9.14869 21.9205 9.95568 21.6553 10.7963 21.5992C10.9652 21.5889 11.1522 21.5889 11.5196 21.5889H23.8143" stroke="black" stroke-width="2" stroke-linecap="round" stroke-linejoin="round"/>
<path d="M25.0182 21.5884H16.9099C14.1356 21.5884 12.7485 21.5884 11.6785 21.0222C11.2274 20.7826 10.8253 20.4748 10.4899 20.1122C9.69136 19.2516 9.46322 18.0163 9.00921 15.5477C8.54607 13.0463 8.31564 11.7945 8.86547 10.868C9.0942 10.4814 9.41151 10.1431 9.79631 9.87565C10.718 9.23535 12.1234 9.23535 14.9342 9.23535H30.1195C33.4277 9.23535 35.0817 9.23535 35.7525 10.2112C36.4209 11.1892 35.6795 12.5233 34.2011 15.1936L33.1813 17.0363C31.9538 19.2516 31.3401 20.3592 30.2382 20.9728C29.134 21.5884 27.7628 21.5884 25.0182 21.5884Z" stroke="black" stroke-width="2" stroke-linecap="round"/>
<path d="M30.6584 35.9995C31.9184 35.9995 32.9399 35.0777 32.9399 33.9407C32.9399 32.8036 31.9184 31.8818 30.6584 31.8818C29.3984 31.8818 28.377 32.8036 28.377 33.9407C28.377 35.0777 29.3984 35.9995 30.6584 35.9995Z" fill="black"/>
<path d="M12.4084 35.9995C13.6684 35.9995 14.6899 35.0777 14.6899 33.9407C14.6899 32.8036 13.6684 31.8818 12.4084 31.8818C11.1484 31.8818 10.127 32.8036 10.127 33.9407C10.127 35.0777 11.1484 35.9995 12.4084 35.9995Z" fill="black"/>
</svg>
