<svg width="30" height="31" viewBox="0 0 30 31" fill="none" xmlns="http://www.w3.org/2000/svg">
<path d="M20.632 1.43152C21.2286 0.835069 22.0377 0.5 22.8813 0.5C23.7249 0.5 24.534 0.835069 25.1306 1.43152L29.0677 5.36872C29.3633 5.66418 29.5977 6.01497 29.7577 6.40106C29.9177 6.78715 30 7.20098 30 7.6189C30 8.03681 29.9177 8.45064 29.7577 8.83673C29.5977 9.22282 29.3633 9.57361 29.0677 9.86907L10.149 28.7883L0 30.5L1.71323 20.3508L20.632 1.43152ZM20.2677 6.29456L24.2048 10.2318L26.8184 7.6181L22.8813 3.68249L20.2677 6.29456ZM21.9539 12.4827L18.0184 8.54553L4.68157 21.8827L3.88142 26.6185L8.61707 25.8199L21.9539 12.4827Z" fill="black" fill-opacity="0.8"/>
</svg>
