<svg width="36" height="37" viewBox="0 0 36 37" fill="none" xmlns="http://www.w3.org/2000/svg">
<path fill-rule="evenodd" clip-rule="evenodd" d="M7.71492 0.5C5.66931 0.5 3.70744 1.31241 2.26069 2.7586C0.813952 4.20479 0.000785565 6.16635 0 8.21196V28.7851C0 30.8312 0.812819 32.7935 2.25965 34.2404C3.70648 35.6872 5.6688 36.5 7.71492 36.5H28.288C30.3337 36.4992 32.2952 35.6861 33.7414 34.2393C35.1876 32.7926 36 30.8307 36 28.7851V8.21196C35.9992 6.16686 35.1865 4.20575 33.7404 2.75965C32.2943 1.31354 30.3331 0.500785 28.288 0.5H7.71492ZM30.5071 8.22381C30.5071 8.81313 30.273 9.37831 29.8563 9.79503C29.4396 10.2117 28.8744 10.4458 28.2851 10.4458C27.6958 10.4458 27.1306 10.2117 26.7139 9.79503C26.2971 9.37831 26.063 8.81313 26.063 8.22381C26.063 7.63449 26.2971 7.0693 26.7139 6.65259C27.1306 6.23588 27.6958 6.00177 28.2851 6.00177C28.8744 6.00177 29.4396 6.23588 29.8563 6.65259C30.273 7.0693 30.5071 7.63449 30.5071 8.22381ZM18.0044 12.3361C16.3701 12.3361 14.8026 12.9853 13.6469 14.141C12.4912 15.2967 11.842 16.8641 11.842 18.4985C11.842 20.1329 12.4912 21.7003 13.6469 22.856C14.8026 24.0117 16.3701 24.661 18.0044 24.661C19.6388 24.661 21.2063 24.0117 22.362 22.856C23.5176 21.7003 24.1669 20.1329 24.1669 18.4985C24.1669 16.8641 23.5176 15.2967 22.362 14.141C21.2063 12.9853 19.6388 12.3361 18.0044 12.3361ZM8.87631 18.4985C8.87631 16.0784 9.83771 13.7573 11.549 12.046C13.2603 10.3347 15.5813 9.37334 18.0015 9.37334C20.4216 9.37334 22.7427 10.3347 24.454 12.046C26.1653 13.7573 27.1267 16.0784 27.1267 18.4985C27.1267 20.9187 26.1653 23.2397 24.454 24.951C22.7427 26.6623 20.4216 27.6237 18.0015 27.6237C15.5813 27.6237 13.2603 26.6623 11.549 24.951C9.83771 23.2397 8.87631 20.9187 8.87631 18.4985Z" fill="black"/>
</svg>
