<svg width="19" height="24" viewBox="0 0 19 24" fill="none" xmlns="http://www.w3.org/2000/svg">
<path d="M2.15909 24C1.56534 24 1.05723 23.7391 0.634773 23.2173C0.212311 22.6955 0.000719697 22.0675 0 21.3333V2.66666C0 1.93333 0.211591 1.30578 0.634773 0.783999C1.05795 0.262222 1.56606 0.000888888 2.15909 0H8.63636C8.94223 0 9.19881 0.128 9.40608 0.384C9.61335 0.64 9.71663 0.956444 9.71591 1.33333C9.71519 1.71022 9.61155 2.02711 9.405 2.284C9.19845 2.54089 8.94223 2.66844 8.63636 2.66666H2.15909V21.3333H8.63636C8.94223 21.3333 9.19881 21.4613 9.40608 21.7173C9.61335 21.9733 9.71663 22.2898 9.71591 22.6666C9.71519 23.0435 9.61155 23.3604 9.405 23.6173C9.19845 23.8742 8.94223 24.0018 8.63636 24H2.15909ZM15.3026 13.3333H7.55682C7.25095 13.3333 6.99473 13.2053 6.78818 12.9493C6.58163 12.6933 6.47799 12.3769 6.47727 12C6.47655 11.6231 6.58019 11.3067 6.78818 11.0507C6.99617 10.7947 7.25239 10.6667 7.55682 10.6667H15.3026L13.2784 8.16666C13.0805 7.92222 12.9815 7.62222 12.9815 7.26666C12.9815 6.91111 13.0805 6.59999 13.2784 6.33333C13.4763 6.06666 13.7282 5.92755 14.0341 5.916C14.34 5.90444 14.6009 6.03244 14.8168 6.29999L18.6761 11.0667C18.892 11.3333 19 11.6444 19 12C19 12.3555 18.892 12.6667 18.6761 12.9333L14.8168 17.7C14.6009 17.9667 14.3446 18.0947 14.0481 18.084C13.7516 18.0733 13.495 17.9342 13.2784 17.6667C13.0805 17.4 12.9862 17.0835 12.9956 16.7173C13.0049 16.3511 13.1082 16.0453 13.3054 15.8L15.3026 13.3333Z" fill="#D1537D"/>
</svg>
