<svg width="46" height="46" viewBox="0 0 46 46" fill="none" xmlns="http://www.w3.org/2000/svg">
<path d="M2 38.75C2 35.9652 3.10625 33.2945 5.07538 31.3254C7.04451 29.3562 9.71523 28.25 12.5 28.25H33.5C36.2848 28.25 38.9555 29.3562 40.9246 31.3254C42.8938 33.2945 44 35.9652 44 38.75C44 40.1424 43.4469 41.4777 42.4623 42.4623C41.4777 43.4469 40.1424 44 38.75 44H7.25C5.85761 44 4.52226 43.4469 3.53769 42.4623C2.55312 41.4777 2 40.1424 2 38.75Z" stroke="white" stroke-width="2.5" stroke-linejoin="round"/>
<path d="M23 17.75C27.3492 17.75 30.875 14.2242 30.875 9.875C30.875 5.52576 27.3492 2 23 2C18.6508 2 15.125 5.52576 15.125 9.875C15.125 14.2242 18.6508 17.75 23 17.75Z" stroke="white" stroke-width="2.5"/>
</svg>
