<svg width="36" height="37" viewBox="0 0 36 37" fill="none" xmlns="http://www.w3.org/2000/svg">
<path fill-rule="evenodd" clip-rule="evenodd" d="M25.3846 36.5C28.2 36.5 30.9001 35.3816 32.8908 33.3908C34.8816 31.4001 36 28.7 36 25.8846V11.1154C36 8.30001 34.8816 5.59994 32.8908 3.60917C30.9001 1.6184 28.2 0.5 25.3846 0.5H10.6154C7.80001 0.5 5.09994 1.6184 3.10917 3.60917C1.1184 5.59994 0 8.30001 0 11.1154V25.8846C0 28.7 1.1184 31.4001 3.10917 33.3908C5.09994 35.3816 7.80001 36.5 10.6154 36.5H25.3846ZM21.1588 6.98554C21.0543 6.67435 20.8427 6.41041 20.5616 6.24078C20.2806 6.07116 19.9485 6.0069 19.6244 6.05946C19.3004 6.11202 19.0056 6.27799 18.7926 6.52775C18.5796 6.77751 18.4623 7.09483 18.4615 7.42308V24.0385C18.4615 24.86 18.2179 25.6631 17.7615 26.3462C17.3051 27.0293 16.6563 27.5617 15.8973 27.8761C15.1383 28.1905 14.3031 28.2728 13.4973 28.1125C12.6915 27.9522 11.9514 27.5566 11.3705 26.9757C10.7896 26.3947 10.3939 25.6546 10.2337 24.8488C10.0734 24.0431 10.1556 23.2079 10.47 22.4489C10.7844 21.6898 11.3168 21.0411 11.9999 20.5847C12.683 20.1282 13.4861 19.8846 14.3077 19.8846C14.6749 19.8846 15.0271 19.7387 15.2868 19.4791C15.5464 19.2194 15.6923 18.8672 15.6923 18.5C15.6923 18.1328 15.5464 17.7806 15.2868 17.5209C15.0271 17.2613 14.6749 17.1154 14.3077 17.1154C12.9384 17.1154 11.5999 17.5214 10.4614 18.2821C9.32294 19.0429 8.43559 20.1241 7.9116 21.3891C7.38761 22.6541 7.25051 24.0461 7.51764 25.3891C7.78477 26.732 8.44413 27.9656 9.41234 28.9338C10.3805 29.902 11.6141 30.5614 12.9571 30.8285C14.3 31.0956 15.692 30.9585 16.957 30.4345C18.2221 29.9106 19.3033 29.0232 20.064 27.8847C20.8247 26.7462 21.2308 25.4077 21.2308 24.0385V11.9609C22.6468 13.2754 24.6406 14.3462 27.2308 14.3462C27.598 14.3462 27.9502 14.2003 28.2098 13.9406C28.4695 13.6809 28.6154 13.3288 28.6154 12.9615C28.6154 12.5943 28.4695 12.2421 28.2098 11.9825C27.9502 11.7228 27.598 11.5769 27.2308 11.5769C25.4363 11.5769 24.072 10.8385 23.0603 9.88031C22.0265 8.89815 21.4025 7.71477 21.1588 6.98554Z" fill="black"/>
</svg>
