<svg width="36" height="37" viewBox="0 0 36 37" fill="none" xmlns="http://www.w3.org/2000/svg">
<path d="M5.14286 0.5C2.30625 0.5 0 2.80625 0 5.64286V31.3571C0 34.1937 2.30625 36.5 5.14286 36.5H30.8571C33.6937 36.5 36 34.1937 36 31.3571V5.64286C36 2.80625 33.6937 0.5 30.8571 0.5H5.14286ZM29.017 7.25L20.6759 16.7804L30.4875 29.75H22.8054L16.7946 21.883L9.90804 29.75H6.09107L15.0107 19.5527L5.60089 7.25H13.4759L18.9161 14.442L25.2 7.25H29.017ZM25.9795 27.4679L12.3268 9.41161H10.0527L23.858 27.4679H25.9714H25.9795Z" fill="black"/>
</svg>
